<mxfile host="app.diagrams.net" modified="2023-05-22T17:47:24.123Z" agent="Mozilla/5.0 (Macintosh; Intel Mac OS X 10_15_7) AppleWebKit/537.36 (KHTML, like Gecko) Chrome/113.0.0.0 Safari/537.36" etag="6a3_c2ICp5MBzLlMdMO1" version="21.3.2" type="github">
  <diagram name="Strona-1" id="DWH_vbVhXQRNPxT3MOOn">
    <mxGraphModel dx="904" dy="623" grid="1" gridSize="10" guides="1" tooltips="1" connect="1" arrows="1" fold="1" page="1" pageScale="1" pageWidth="827" pageHeight="1169" math="0" shadow="0">
      <root>
        <mxCell id="0" />
        <mxCell id="1" parent="0" />
        <mxCell id="GT416_ScAccWOi4NzhqO-1" value="START" style="ellipse;whiteSpace=wrap;html=1;" parent="1" vertex="1">
          <mxGeometry x="70" y="10" width="100" height="60" as="geometry" />
        </mxCell>
        <mxCell id="GT416_ScAccWOi4NzhqO-4" value="" style="endArrow=classic;html=1;rounded=0;exitX=0.5;exitY=1;exitDx=0;exitDy=0;" parent="1" source="GT416_ScAccWOi4NzhqO-1" edge="1">
          <mxGeometry width="50" height="50" relative="1" as="geometry">
            <mxPoint x="450" y="350" as="sourcePoint" />
            <mxPoint x="120" y="100" as="targetPoint" />
          </mxGeometry>
        </mxCell>
        <mxCell id="GT416_ScAccWOi4NzhqO-5" value="&lt;font style=&quot;font-size: 11px;&quot;&gt;Wczytaj n liczb do tablicy tab&lt;/font&gt;" style="shape=parallelogram;perimeter=parallelogramPerimeter;whiteSpace=wrap;html=1;fixedSize=1;" parent="1" vertex="1">
          <mxGeometry x="60" y="100" width="120" height="50" as="geometry" />
        </mxCell>
        <mxCell id="GT416_ScAccWOi4NzhqO-7" value="" style="endArrow=classic;html=1;rounded=0;" parent="1" edge="1">
          <mxGeometry width="50" height="50" relative="1" as="geometry">
            <mxPoint x="120" y="210" as="sourcePoint" />
            <mxPoint x="119.5" y="260" as="targetPoint" />
            <Array as="points">
              <mxPoint x="119.5" y="220" />
            </Array>
          </mxGeometry>
        </mxCell>
        <mxCell id="GT416_ScAccWOi4NzhqO-8" value="pozycjaX=0&lt;br&gt;index = 0" style="rounded=0;whiteSpace=wrap;html=1;" parent="1" vertex="1">
          <mxGeometry x="59" y="260" width="120" height="60" as="geometry" />
        </mxCell>
        <mxCell id="GT416_ScAccWOi4NzhqO-9" value="index &amp;lt; n" style="rhombus;whiteSpace=wrap;html=1;" parent="1" vertex="1">
          <mxGeometry x="80" y="410" width="80" height="80" as="geometry" />
        </mxCell>
        <mxCell id="GT416_ScAccWOi4NzhqO-10" value="" style="endArrow=classic;html=1;rounded=0;exitX=0.5;exitY=1;exitDx=0;exitDy=0;entryX=0.5;entryY=0;entryDx=0;entryDy=0;" parent="1" source="GT416_ScAccWOi4NzhqO-8" target="GT416_ScAccWOi4NzhqO-9" edge="1">
          <mxGeometry width="50" height="50" relative="1" as="geometry">
            <mxPoint x="440" y="360" as="sourcePoint" />
            <mxPoint x="490" y="310" as="targetPoint" />
          </mxGeometry>
        </mxCell>
        <mxCell id="GT416_ScAccWOi4NzhqO-13" value="KONIEC" style="ellipse;whiteSpace=wrap;html=1;" parent="1" vertex="1">
          <mxGeometry x="60" y="720" width="120" height="80" as="geometry" />
        </mxCell>
        <mxCell id="GT416_ScAccWOi4NzhqO-17" value="index = index +1&amp;nbsp;" style="rounded=0;whiteSpace=wrap;html=1;" parent="1" vertex="1">
          <mxGeometry x="370" y="420" width="120" height="60" as="geometry" />
        </mxCell>
        <mxCell id="GT416_ScAccWOi4NzhqO-18" value="TAK" style="endArrow=classic;html=1;rounded=0;exitX=1;exitY=0.5;exitDx=0;exitDy=0;" parent="1" source="GT416_ScAccWOi4NzhqO-9" edge="1">
          <mxGeometry width="50" height="50" relative="1" as="geometry">
            <mxPoint x="440" y="510" as="sourcePoint" />
            <mxPoint x="210" y="450" as="targetPoint" />
            <mxPoint as="offset" />
          </mxGeometry>
        </mxCell>
        <mxCell id="GT416_ScAccWOi4NzhqO-21" value="" style="endArrow=classic;html=1;rounded=0;exitX=0.5;exitY=0;exitDx=0;exitDy=0;" parent="1" source="GT416_ScAccWOi4NzhqO-17" edge="1">
          <mxGeometry width="50" height="50" relative="1" as="geometry">
            <mxPoint x="440" y="510" as="sourcePoint" />
            <mxPoint x="120" y="340" as="targetPoint" />
            <Array as="points">
              <mxPoint x="430" y="340" />
            </Array>
          </mxGeometry>
        </mxCell>
        <mxCell id="ZoD57XXQ0Y5gKYOP4Oae-7" value="NIE" style="endArrow=classic;html=1;rounded=0;entryX=0;entryY=0.5;entryDx=0;entryDy=0;exitX=1;exitY=0.5;exitDx=0;exitDy=0;" parent="1" source="4mzwxAdYOxgqRgTpUQ72-4" target="GT416_ScAccWOi4NzhqO-17" edge="1">
          <mxGeometry x="-0.0449" y="1" width="50" height="50" relative="1" as="geometry">
            <mxPoint x="320" y="410" as="sourcePoint" />
            <mxPoint x="440" y="330" as="targetPoint" />
            <mxPoint as="offset" />
          </mxGeometry>
        </mxCell>
        <mxCell id="4mzwxAdYOxgqRgTpUQ72-4" value="tab[i] == x" style="rhombus;whiteSpace=wrap;html=1;" vertex="1" parent="1">
          <mxGeometry x="210" y="410" width="80" height="80" as="geometry" />
        </mxCell>
        <mxCell id="4mzwxAdYOxgqRgTpUQ72-6" value="" style="endArrow=classic;html=1;rounded=0;exitX=0.5;exitY=1;exitDx=0;exitDy=0;entryX=0.5;entryY=0;entryDx=0;entryDy=0;" edge="1" parent="1" source="4mzwxAdYOxgqRgTpUQ72-4">
          <mxGeometry width="50" height="50" relative="1" as="geometry">
            <mxPoint x="390" y="400" as="sourcePoint" />
            <mxPoint x="250" y="555" as="targetPoint" />
            <Array as="points">
              <mxPoint x="250" y="550" />
            </Array>
          </mxGeometry>
        </mxCell>
        <mxCell id="4mzwxAdYOxgqRgTpUQ72-7" value="TAK" style="edgeLabel;html=1;align=center;verticalAlign=middle;resizable=0;points=[];" vertex="1" connectable="0" parent="4mzwxAdYOxgqRgTpUQ72-6">
          <mxGeometry x="0.1194" y="-1" relative="1" as="geometry">
            <mxPoint as="offset" />
          </mxGeometry>
        </mxCell>
        <mxCell id="4mzwxAdYOxgqRgTpUQ72-8" value="&lt;span style=&quot;font-size: 11px;&quot;&gt;Podaj x&lt;/span&gt;" style="shape=parallelogram;perimeter=parallelogramPerimeter;whiteSpace=wrap;html=1;fixedSize=1;" vertex="1" parent="1">
          <mxGeometry x="60" y="190" width="120" height="40" as="geometry" />
        </mxCell>
        <mxCell id="4mzwxAdYOxgqRgTpUQ72-10" value="" style="endArrow=classic;html=1;rounded=0;exitX=0.5;exitY=1;exitDx=0;exitDy=0;entryX=0.5;entryY=0;entryDx=0;entryDy=0;" edge="1" parent="1" source="GT416_ScAccWOi4NzhqO-5" target="4mzwxAdYOxgqRgTpUQ72-8">
          <mxGeometry width="50" height="50" relative="1" as="geometry">
            <mxPoint x="390" y="280" as="sourcePoint" />
            <mxPoint x="440" y="230" as="targetPoint" />
          </mxGeometry>
        </mxCell>
        <mxCell id="4mzwxAdYOxgqRgTpUQ72-11" value="pozycjaX = tab[i]+1" style="rounded=0;whiteSpace=wrap;html=1;" vertex="1" parent="1">
          <mxGeometry x="190" y="555" width="120" height="60" as="geometry" />
        </mxCell>
        <mxCell id="4mzwxAdYOxgqRgTpUQ72-12" value="" style="endArrow=classic;html=1;rounded=0;exitX=1;exitY=0.5;exitDx=0;exitDy=0;entryX=0.5;entryY=1;entryDx=0;entryDy=0;" edge="1" parent="1" source="4mzwxAdYOxgqRgTpUQ72-11" target="GT416_ScAccWOi4NzhqO-17">
          <mxGeometry width="50" height="50" relative="1" as="geometry">
            <mxPoint x="390" y="490" as="sourcePoint" />
            <mxPoint x="440" y="440" as="targetPoint" />
            <Array as="points">
              <mxPoint x="430" y="585" />
            </Array>
          </mxGeometry>
        </mxCell>
        <mxCell id="4mzwxAdYOxgqRgTpUQ72-14" value="" style="endArrow=classic;html=1;rounded=0;exitX=0.5;exitY=1;exitDx=0;exitDy=0;" edge="1" parent="1" source="GT416_ScAccWOi4NzhqO-9">
          <mxGeometry width="50" height="50" relative="1" as="geometry">
            <mxPoint x="390" y="490" as="sourcePoint" />
            <mxPoint x="120" y="600" as="targetPoint" />
          </mxGeometry>
        </mxCell>
        <mxCell id="4mzwxAdYOxgqRgTpUQ72-15" value="NIE" style="edgeLabel;html=1;align=center;verticalAlign=middle;resizable=0;points=[];" vertex="1" connectable="0" parent="4mzwxAdYOxgqRgTpUQ72-14">
          <mxGeometry x="0.0091" y="-1" relative="1" as="geometry">
            <mxPoint as="offset" />
          </mxGeometry>
        </mxCell>
        <mxCell id="4mzwxAdYOxgqRgTpUQ72-16" value="Wypisz &lt;i&gt;pozycjaX&lt;/i&gt;" style="shape=parallelogram;perimeter=parallelogramPerimeter;whiteSpace=wrap;html=1;fixedSize=1;" vertex="1" parent="1">
          <mxGeometry x="59" y="600" width="120" height="60" as="geometry" />
        </mxCell>
        <mxCell id="4mzwxAdYOxgqRgTpUQ72-17" value="" style="endArrow=classic;html=1;rounded=0;exitX=0.5;exitY=1;exitDx=0;exitDy=0;" edge="1" parent="1" source="4mzwxAdYOxgqRgTpUQ72-16">
          <mxGeometry width="50" height="50" relative="1" as="geometry">
            <mxPoint x="390" y="510" as="sourcePoint" />
            <mxPoint x="120" y="720" as="targetPoint" />
          </mxGeometry>
        </mxCell>
      </root>
    </mxGraphModel>
  </diagram>
</mxfile>
